<?xml version="1.0" encoding="UTF-8"?>
<svg xmlns="http://www.w3.org/2000/svg" viewBox="0 0 512 512" width="512" height="512">
  <defs>
    <!-- ===== GRADIENTS ===== -->
    <!-- Main body dorsal gradient -->
    <linearGradient id="dorsalGrad" x1="0%" y1="0%" x2="0%" y2="100%">
      <stop offset="0%" stop-color="#FFF4C5"/>
      <stop offset="15%" stop-color="#E6C15A"/>
      <stop offset="45%" stop-color="#D7A12B"/>
      <stop offset="75%" stop-color="#A66D12"/>
      <stop offset="100%" stop-color="#5E3E09"/>
    </linearGradient>

    <!-- Ventral (belly) gradient -->
    <linearGradient id="ventralGrad" x1="0%" y1="0%" x2="0%" y2="100%">
      <stop offset="0%" stop-color="#E6C15A"/>
      <stop offset="50%" stop-color="#C9942A"/>
      <stop offset="100%" stop-color="#A66D12"/>
    </linearGradient>

    <!-- Head gradient -->
    <linearGradient id="headGrad" x1="20%" y1="0%" x2="80%" y2="100%">
      <stop offset="0%" stop-color="#FFF4C5"/>
      <stop offset="25%" stop-color="#E6C15A"/>
      <stop offset="60%" stop-color="#D7A12B"/>
      <stop offset="100%" stop-color="#A66D12"/>
    </linearGradient>

    <!-- Eye glow -->
    <radialGradient id="eyeGlow" cx="50%" cy="50%" r="50%">
      <stop offset="0%" stop-color="#FFFFFF" stop-opacity="1"/>
      <stop offset="40%" stop-color="#66F5FF" stop-opacity="0.9"/>
      <stop offset="100%" stop-color="#66F5FF" stop-opacity="0"/>
    </radialGradient>

    <!-- Specular highlight gradient -->
    <linearGradient id="specularGrad" x1="0%" y1="0%" x2="100%" y2="100%">
      <stop offset="0%" stop-color="#FFFFFF" stop-opacity="0.5"/>
      <stop offset="50%" stop-color="#FFFFFF" stop-opacity="0"/>
      <stop offset="100%" stop-color="#FFFFFF" stop-opacity="0.2"/>
    </linearGradient>

    <!-- Tail tip gradient -->
    <linearGradient id="tailGrad" x1="50%" y1="0%" x2="50%" y2="100%">
      <stop offset="0%" stop-color="#D7A12B"/>
      <stop offset="40%" stop-color="#A66D12"/>
      <stop offset="100%" stop-color="#5E3E09"/>
    </linearGradient>

    <!-- Scale highlight -->
    <linearGradient id="scaleHighlight" x1="0%" y1="0%" x2="100%" y2="100%">
      <stop offset="0%" stop-color="#FFF4C5" stop-opacity="0.6"/>
      <stop offset="100%" stop-color="#D7A12B" stop-opacity="0"/>
    </linearGradient>

    <!-- ===== FILTERS ===== -->
    <!-- Eye glow filter -->
    <filter id="glowFilter" x="-100%" y="-100%" width="300%" height="300%">
      <feGaussianBlur in="SourceGraphic" stdDeviation="2.5" result="blur"/>
      <feMerge>
        <feMergeNode in="blur"/>
        <feMergeNode in="blur"/>
        <feMergeNode in="SourceGraphic"/>
      </feMerge>
    </filter>

    <!-- Soft drop shadow -->
    <filter id="dropShadow" x="-10%" y="-10%" width="120%" height="120%">
      <feDropShadow dx="0" dy="3" stdDeviation="4" flood-color="#2a1a06" flood-opacity="0.35"/>
    </filter>

    <!-- Subtle inner shadow for depth -->
    <filter id="innerGlow" x="-20%" y="-20%" width="140%" height="140%">
      <feGaussianBlur in="SourceGraphic" stdDeviation="1.5"/>
    </filter>

    <!-- ===== MASK FOR PROGRESSIVE REVEAL ===== -->
    <!-- This mask reveals the snake body progressively -->
        <!-- ===== MASK FOR PROGRESSIVE REVEAL ===== -->
    <!-- This mask reveals the snake body progressively along the path -->
    <mask id="progressMask">
      <rect width="512" height="512" fill="black"/>
      <path d="M 256 106
        C 310 106, 360 126, 398 160
        C 436 194, 456 240, 456 290
        C 456 340, 436 386, 398 420
        C 360 454, 310 474, 256 474
        C 202 474, 152 454, 114 420
        C 76 386, 56 340, 56 290
        C 56 240, 76 194, 114 160
        C 152 126, 202 106, 256 106 Z"
        fill="none" stroke="white" stroke-width="60" stroke-linecap="butt"
        stroke-dasharray="1207" stroke-dashoffset="1207">
        <animate attributeName="stroke-dashoffset" values="1207;0;0;1207" keyTimes="0;0.88;0.95;1"
          dur="4s" repeatCount="indefinite"
          calcMode="spline"
          keySplines="0.42 0 0.58 1; 0.42 0 0.58 1; 0.42 0 0.58 1"/>
      </path>
    </mask>

    <!-- ===== SERPENT BODY PATH ===== -->
    <!-- The complete serpent silhouette - a ring with variable width -->
    <!-- Center of ring: 256, 256. Radius: ~150 -->
    <!-- The path goes around the ring, wider at first third (head/mid), tapering to tail -->

    <!-- Phase path for head motion (same ring) -->
    <path id="ringPath" d="M 256 106
      C 310 106, 360 126, 398 160
      C 436 194, 456 240, 456 290
      C 456 340, 436 386, 398 420
      C 360 454, 310 474, 256 474
      C 202 474, 152 454, 114 420
      C 76 386, 56 340, 56 290
      C 56 240, 76 194, 114 160
      C 152 126, 202 106, 256 106 Z"/>

    <!-- ===== HEAD GEOMETRY (defined once, animated along path) ===== -->
    <g id="snakeHead">
      <!-- Neck transition from body -->
      <ellipse cx="0" cy="14" rx="16" ry="12" fill="url(#headGrad)" stroke="#A66D12" stroke-width="0.8"/>

      <!-- Main head shield -->
      <path d="M -20 -6 C -22 -14, -16 -22, -8 -26 L 0 -30 L 8 -26 C 16 -22, 22 -14, 20 -6 C 18 2, 10 8, 0 10 C -10 8, -18 2, -20 -6 Z"
            fill="url(#headGrad)" stroke="#A66D12" stroke-width="1.2"/>

      <!-- Upper jaw / snout -->
      <path d="M -10 -20 C -12 -28, -6 -34, 0 -36 C 6 -34, 12 -28, 10 -20"
            fill="#D7A12B" stroke="#A66D12" stroke-width="1"/>

      <!-- Snout tip -->
      <ellipse cx="0" cy="-33" rx="4" ry="3" fill="#C9942A" stroke="#A66D12" stroke-width="0.5"/>

      <!-- Nostrils -->
      <ellipse cx="-5" cy="-28" rx="2.5" ry="2" fill="#3D2606"/>
      <ellipse cx="5" cy="-28" rx="2.5" ry="2" fill="#3D2606"/>
      <ellipse cx="-5" cy="-27.5" rx="1.2" ry="1" fill="#1a0f03" opacity="0.6"/>
      <ellipse cx="5" cy="-27.5" rx="1.2" ry="1" fill="#1a0f03" opacity="0.6"/>

      <!-- Eye sockets (shadow) -->
      <ellipse cx="-12" cy="-16" rx="6" ry="5" fill="#3D2606" opacity="0.35"/>
      <ellipse cx="12" cy="-16" rx="6" ry="5" fill="#3D2606" opacity="0.35"/>

      <!-- Eye ridges (brow scales) -->
      <path d="M -18 -18 C -16 -22, -10 -22, -8 -20" fill="none" stroke="#A66D12" stroke-width="1.5" stroke-linecap="round"/>
      <path d="M 18 -18 C 16 -22, 10 -22, 8 -20" fill="none" stroke="#A66D12" stroke-width="1.5" stroke-linecap="round"/>

      <!-- Eyes -->
      <circle cx="-12" cy="-16" r="4" fill="#66F5FF" filter="url(#glowFilter)">
        <animate attributeName="opacity" values="0.9;1;0.9" dur="4s" repeatCount="indefinite"/>
      </circle>
      <circle cx="12" cy="-16" r="4" fill="#66F5FF" filter="url(#glowFilter)">
        <animate attributeName="opacity" values="0.9;1;0.9" dur="4s" repeatCount="indefinite"/>
      </circle>

      <!-- Pupils (vertical slit) -->
      <ellipse cx="-12" cy="-16" rx="1.2" ry="3.5" fill="#001a1a"/>
      <ellipse cx="12" cy="-16" rx="1.2" ry="3.5" fill="#001a1a"/>

      <!-- Eye specular highlights -->
      <circle cx="-13.5" cy="-17.5" r="1" fill="#FFFFFF" opacity="0.9"/>
      <circle cx="10.5" cy="-17.5" r="1" fill="#FFFFFF" opacity="0.9"/>

      <!-- Fangs (upper) -->
      <path d="M -4 -18 L -5 -28 L -2 -18" fill="#FFF8E0" stroke="#D7A12B" stroke-width="0.5"/>
      <path d="M 4 -18 L 5 -28 L 2 -18" fill="#FFF8E0" stroke="#D7A12B" stroke-width="0.5"/>

      <!-- Lower jaw -->
      <path d="M -14 6 C -16 12, -10 18, 0 20 C 10 18, 16 12, 14 6"
            fill="#A66D12" stroke="#5E3E09" stroke-width="1"/>

      <!-- Mouth crease -->
      <path d="M -10 6 C -6 10, 6 10, 10 6" fill="none" stroke="#5E3E09" stroke-width="0.8" opacity="0.5"/>

      <!-- Tongue -->
      <path d="M -2 14 L 0 24 L 2 14" fill="#CC3333" stroke="#991111" stroke-width="0.4" opacity="0">
        <animate attributeName="opacity" values="0;0;0.7;0;0" keyTimes="0;0.9;0.93;0.96;1"
          dur="4s" repeatCount="indefinite"/>
      </path>
      <path d="M -1 18 L 0 22 L 1 18" fill="#DD4444" stroke="none" opacity="0">
        <animate attributeName="opacity" values="0;0;0.5;0;0" keyTimes="0;0.9;0.93;0.96;1"
          dur="4s" repeatCount="indefinite"/>
      </path>

      <!-- Head dorsal scales (small, on top) -->
      <path d="M -8 -30 L -6 -34 L -4 -30" fill="none" stroke="#A66D12" stroke-width="0.6" opacity="0.5"/>
      <path d="M 0 -32 L 2 -36 L 4 -32" fill="none" stroke="#A66D12" stroke-width="0.6" opacity="0.5"/>
      <path d="M 6 -30 L 8 -34 L 10 -30" fill="none" stroke="#A66D12" stroke-width="0.6" opacity="0.5"/>
      <path d="M -14 -24 L -12 -28 L -10 -24" fill="none" stroke="#A66D12" stroke-width="0.6" opacity="0.4"/>
      <path d="M 12 -24 L 14 -28 L 16 -24" fill="none" stroke="#A66D12" stroke-width="0.6" opacity="0.4"/>

      <!-- Head lateral scales -->
      <path d="M -18 -10 L -22 -12 L -20 -8" fill="none" stroke="#A66D12" stroke-width="0.5" opacity="0.4"/>
      <path d="M 18 -10 L 22 -12 L 20 -8" fill="none" stroke="#A66D12" stroke-width="0.5" opacity="0.4"/>

      <!-- Specular highlight on head -->
      <ellipse cx="-2" cy="-22" rx="8" ry="4" fill="#FFF4C5" opacity="0.2" transform="rotate(-10, -2, -22)"/>

      <!-- Jaw shadow -->
      <path d="M -12 4 C -8 8, 8 8, 12 4" fill="none" stroke="#5E3E09" stroke-width="1" opacity="0.25"/>
    </g>

    <!-- ===== SCALE CLUSTER DEFINITIONS ===== -->
    <!-- Individual scale shapes for different body regions -->
    <g id="scaleLarge">
      <path d="M 0 -5 C 3 -4, 5 -2, 5 0 C 5 2, 3 4, 0 5 C -3 4, -5 2, -5 0 C -5 -2, -3 -4, 0 -5 Z"
            fill="url(#scaleHighlight)" stroke="#A66D12" stroke-width="0.3" opacity="0.6"/>
    </g>

    <g id="scaleMedium">
      <path d="M 0 -3.5 C 2 -2.5, 3.5 -1, 3.5 0 C 3.5 1, 2 2.5, 0 3.5 C -2 2.5, -3.5 1, -3.5 0 C -3.5 -1, -2 -2.5, 0 -3.5 Z"
            fill="url(#scaleHighlight)" stroke="#A66D12" stroke-width="0.25" opacity="0.5"/>
    </g>

    <g id="scaleSmall">
      <path d="M 0 -2 C 1.2 -1.2, 2 -0.5, 2 0 C 2 0.5, 1.2 1.2, 0 2 C -1.2 1.2, -2 0.5, -2 0 C -2 -0.5, -1.2 -1.2, 0 -2 Z"
            fill="url(#scaleHighlight)" stroke="#A66D12" stroke-width="0.2" opacity="0.4"/>
    </g>

    <g id="scaleBelly">
      <path d="M 0 -2.5 C 1.5 -2, 2.5 -1, 2.5 0 C 2.5 1, 1.5 2, 0 2.5 C -1.5 2, -2.5 1, -2.5 0 C -2.5 -1, -1.5 -2, 0 -2.5 Z"
            fill="#E6C15A" opacity="0.3" stroke="#C9942A" stroke-width="0.15"/>
    </g>

  </defs>

  <!-- ===== BACKGROUND ===== -->
  <rect width="512" height="512" fill="transparent"/>

    <!-- ===== MAIN SERPENT GROUP ===== -->
  <g filter="url(#dropShadow)">

    <!-- ===== TAIL SECTION & MAIN BODY (masked for progressive reveal) ===== -->
    <g mask="url(#progressMask)">
      <!-- Main body - tapering dorsal outline -->
      <path d="M 256.0 103.5 L 266.6 103.7 L 277.2 104.4 L 287.7 105.7 L 298.1 107.4 L 308.4 109.6 L 318.6 112.3 L 328.6 115.5 L 338.5 119.2 L 348.1 123.3 L 357.4 127.9 L 366.5 133.0 L 375.4 138.5 L 383.8 144.4 L 392.0 150.7 L 399.8 157.3 L 407.2 164.4 L 414.2 171.8 L 420.7 179.5 L 426.9 187.6 L 432.5 195.9 L 437.7 204.5 L 442.4 213.4 L 446.6 222.4 L 450.3 231.7 L 453.4 241.2 L 456.0 250.7 L 458.1 260.4 L 459.6 270.2 L 460.5 280.1 L 460.9 290.0 L 460.7 299.9 L 460.0 309.8 L 458.7 319.7 L 456.8 329.5 L 454.4 339.1 L 451.4 348.7 L 447.9 358.1 L 443.9 367.3 L 439.3 376.4 L 434.3 385.2 L 428.7 393.7 L 422.7 402.0 L 416.2 410.0 L 409.2 417.6 L 401.9 424.9 L 394.1 431.9 L 385.9 438.4 L 377.4 444.6 L 368.5 450.3 L 359.4 455.7 L 349.9 460.5 L 340.1 464.9 L 330.2 468.9 L 320.0 472.3 L 309.6 475.3 L 299.1 477.7 L 288.4 479.7 L 277.7 481.1 L 266.9 482.0 L 256.0 482.4 L 245.1 482.3 L 234.3 481.6 L 223.4 480.4 L 212.7 478.7 L 202.1 476.5 L 191.6 473.8 L 181.2 470.5 L 171.1 466.8 L 161.1 462.6 L 151.5 457.9 L 142.0 452.8 L 132.9 447.1 L 124.1 441.1 L 115.6 434.6 L 107.6 427.7 L 99.9 420.5 L 92.6 412.8 L 85.7 404.8 L 79.3 396.5 L 73.4 387.9 L 68.0 379.0 L 63.1 369.8 L 58.7 360.4 L 54.8 350.7 L 51.5 340.9 L 48.8 330.9 L 46.6 320.8 L 45.0 310.6 L 44.0 300.3 L 43.5 290.0 L 43.7 279.7 L 44.4 269.3 L 45.7 259.0 L 47.6 248.8 L 50.1 238.7 L 53.2 228.7 L 56.8 218.9 L 61.0 209.2 L 65.7 199.8 L 71.0 190.6 L 76.8 181.7 L 83.0 173.0 L 89.8 164.7 L 97.0 156.7 L 104.6 149.1 L 112.7 141.8 L 121.2 135.0 L 130.0 128.6 L 139.2 122.6 L 148.8 117.0 L 158.6 111.9 L 168.7 107.3 L 179.0 103.2 L 189.6 99.6 L 200.4 96.5 L 211.3 94.0 L 222.3 91.9 L 233.5 90.4 L 244.7 89.4 L 256.0 89.0 L 256.0 123.0 L 246.3 123.1 L 236.7 123.6 L 227.1 124.6 L 217.6 126.1 L 208.1 128.0 L 198.8 130.4 L 189.6 133.2 L 180.6 136.5 L 171.8 140.2 L 163.2 144.3 L 154.9 148.8 L 146.9 153.7 L 139.1 159.0 L 131.6 164.7 L 124.5 170.7 L 117.8 177.0 L 111.4 183.7 L 105.4 190.7 L 99.8 197.9 L 94.6 205.4 L 89.9 213.1 L 85.6 221.1 L 81.7 229.3 L 78.4 237.6 L 75.5 246.1 L 73.1 254.7 L 71.2 263.4 L 69.8 272.2 L 68.9 281.1 L 68.5 290.0 L 68.6 298.9 L 69.2 307.8 L 70.3 316.7 L 72.0 325.6 L 74.1 334.3 L 76.7 343.0 L 79.9 351.5 L 83.5 359.9 L 87.6 368.1 L 92.2 376.1 L 97.2 383.9 L 102.7 391.5 L 108.6 398.8 L 114.9 405.8 L 121.6 412.5 L 128.7 418.9 L 136.2 424.9 L 144.0 430.6 L 152.1 435.9 L 160.5 440.8 L 169.3 445.3 L 178.2 449.4 L 187.4 453.0 L 196.8 456.2 L 206.4 459.0 L 216.1 461.2 L 226.0 463.1 L 235.9 464.4 L 245.9 465.2 L 256.0 465.6 L 266.1 465.5 L 276.1 464.9 L 286.1 463.8 L 296.1 462.2 L 305.9 460.2 L 315.6 457.7 L 325.2 454.7 L 334.5 451.3 L 343.7 447.4 L 352.6 443.0 L 361.3 438.3 L 369.7 433.1 L 377.8 427.6 L 385.6 421.6 L 393.0 415.3 L 400.0 408.6 L 406.7 401.6 L 412.9 394.3 L 418.8 386.7 L 424.1 378.8 L 429.1 370.7 L 433.5 362.3 L 437.5 353.8 L 441.0 345.0 L 444.0 336.1 L 446.5 327.1 L 448.4 317.9 L 449.8 308.7 L 450.7 299.3 L 451.1 290.0 L 450.9 280.6 L 450.2 271.3 L 449.0 262.0 L 447.3 252.8 L 445.0 243.6 L 442.2 234.6 L 438.8 225.7 L 435.0 216.9 L 430.7 208.4 L 425.9 200.1 L 420.6 192.0 L 414.9 184.2 L 408.7 176.6 L 402.1 169.4 L 395.1 162.4 L 387.7 155.9 L 379.9 149.7 L 371.8 143.8 L 363.3 138.4 L 354.6 133.4 L 345.5 128.8 L 336.2 124.6 L 326.7 120.9 L 317.0 117.7 L 307.1 114.9 L 297.1 112.6 L 286.9 110.9 L 276.7 109.6 L 266.3 108.8 L 256.0 108.5 Z" fill="url(#dorsalGrad)" stroke="#5E3E09" stroke-width="1.5"/>

      <!-- Belly overlay (ventral side, inner edge) -->
      <path d="M 256.0 108.5 L 266.3 108.8 L 276.7 109.6 L 286.9 110.9 L 297.1 112.6 L 307.1 114.9 L 317.0 117.7 L 326.7 120.9 L 336.2 124.6 L 345.5 128.8 L 354.6 133.4 L 363.3 138.4 L 371.8 143.8 L 379.9 149.7 L 387.7 155.9 L 395.1 162.4 L 402.1 169.4 L 408.7 176.6 L 414.9 184.2 L 420.6 192.0 L 425.9 200.1 L 430.7 208.4 L 435.0 216.9 L 438.8 225.7 L 442.2 234.6 L 445.0 243.6 L 447.3 252.8 L 449.0 262.0 L 450.2 271.3 L 450.9 280.6 L 451.1 290.0 L 450.7 299.3 L 449.8 308.7 L 448.4 317.9 L 446.5 327.1 L 444.0 336.1 L 441.0 345.0 L 437.5 353.8 L 433.5 362.3 L 429.1 370.7 L 424.1 378.8 L 418.8 386.7 L 412.9 394.3 L 406.7 401.6 L 400.0 408.6 L 393.0 415.3 L 385.6 421.6 L 377.8 427.6 L 369.7 433.1 L 361.3 438.3 L 352.6 443.0 L 343.7 447.4 L 334.5 451.3 L 325.2 454.7 L 315.6 457.7 L 305.9 460.2 L 296.1 462.2 L 286.1 463.8 L 276.1 464.9 L 266.1 465.5 L 256.0 465.6 L 245.9 465.2 L 235.9 464.4 L 226.0 463.1 L 216.1 461.2 L 206.4 459.0 L 196.8 456.2 L 187.4 453.0 L 178.2 449.4 L 169.3 445.3 L 160.5 440.8 L 152.1 435.9 L 144.0 430.6 L 136.2 424.9 L 128.7 418.9 L 121.6 412.5 L 114.9 405.8 L 108.6 398.8 L 102.7 391.5 L 97.2 383.9 L 92.2 376.1 L 87.6 368.1 L 83.5 359.9 L 79.9 351.5 L 76.7 343.0 L 74.1 334.3 L 72.0 325.6 L 70.3 316.7 L 69.2 307.8 L 68.6 298.9 L 68.5 290.0 L 68.9 281.1 L 69.8 272.2 L 71.2 263.4 L 73.1 254.7 L 75.5 246.1 L 78.4 237.6 L 81.7 229.3 L 85.6 221.1 L 89.9 213.1 L 94.6 205.4 L 99.8 197.9 L 105.4 190.7 L 111.4 183.7 L 117.8 177.0 L 124.5 170.7 L 131.6 164.7 L 139.1 159.0 L 146.9 153.7 L 154.9 148.8 L 163.2 144.3 L 171.8 140.2 L 180.6 136.5 L 189.6 133.2 L 198.8 130.4 L 208.1 128.0 L 217.6 126.1 L 227.1 124.6 L 236.7 123.6 L 246.3 123.1 L 256.0 123.0 L 256.0 109.4 L 245.7 109.6 L 235.4 110.3 L 225.2 111.5 L 215.0 113.2 L 205.0 115.4 L 195.1 118.1 L 185.4 121.2 L 175.8 124.8 L 166.5 128.9 L 157.4 133.4 L 148.6 138.3 L 140.1 143.7 L 131.9 149.4 L 124.1 155.5 L 116.6 162.1 L 109.4 168.9 L 102.7 176.1 L 96.4 183.6 L 90.6 191.4 L 85.2 199.5 L 80.2 207.8 L 75.7 216.3 L 71.8 225.1 L 68.3 234.0 L 65.3 243.1 L 62.9 252.3 L 61.0 261.7 L 59.6 271.1 L 58.8 280.5 L 58.5 290.0 L 58.7 299.5 L 59.5 309.0 L 60.8 318.4 L 62.7 327.7 L 65.1 337.0 L 68.0 346.1 L 71.4 355.1 L 75.3 363.9 L 79.8 372.4 L 84.7 380.8 L 90.1 389.0 L 95.9 396.8 L 102.2 404.4 L 108.9 411.7 L 116.0 418.6 L 123.5 425.2 L 131.3 431.4 L 139.6 437.2 L 148.1 442.6 L 156.9 447.6 L 166.0 452.2 L 175.4 456.3 L 184.9 460.0 L 194.7 463.2 L 204.7 466.0 L 214.8 468.2 L 225.0 470.0 L 235.3 471.3 L 245.6 472.0 L 256.0 472.3 L 266.4 472.1 L 276.7 471.4 L 287.1 470.1 L 297.3 468.4 L 307.4 466.2 L 317.4 463.5 L 327.2 460.4 L 336.8 456.7 L 346.2 452.6 L 355.3 448.1 L 364.2 443.1 L 372.8 437.7 L 381.1 431.9 L 389.0 425.7 L 396.5 419.1 L 403.7 412.2 L 410.5 405.0 L 416.8 397.4 L 422.7 389.5 L 428.2 381.4 L 433.2 373.0 L 437.7 364.3 L 441.7 355.5 L 445.2 346.5 L 448.1 337.3 L 450.6 328.0 L 452.5 318.6 L 453.9 309.1 L 454.7 299.6 L 455.0 290.0 L 454.8 280.4 L 454.0 270.9 L 452.6 261.4 L 450.8 251.9 L 448.3 242.6 L 445.4 233.4 L 441.9 224.4 L 438.0 215.5 L 433.5 206.9 L 428.5 198.4 L 423.1 190.2 L 417.2 182.3 L 410.9 174.7 L 404.1 167.4 L 397.0 160.4 L 389.4 153.8 L 381.5 147.5 L 373.2 141.7 L 364.6 136.2 L 355.7 131.2 L 346.5 126.6 L 337.1 122.4 L 327.5 118.8 L 317.6 115.5 L 307.6 112.8 L 297.5 110.5 L 287.2 108.8 L 276.9 107.5 L 266.4 106.8 L 256.0 106.5 Z" fill="url(#ventralGrad)" opacity="0.85"/>

      <!-- Dorsal center highlight stripe -->
      <path d="M 256.0 105.3 L 266.5 105.5 L 277.0 106.2 L 287.4 107.5 L 297.7 109.2 L 308.0 111.5 L 318.0 114.2 L 328.0 117.4 L 337.7 121.1 L 347.2 125.2 L 356.4 129.8 L 365.4 134.9 L 374.1 140.3 L 382.5 146.2 L 390.5 152.5 L 398.1 159.1 L 405.4 166.1 L 412.2 173.5 L 418.7 181.2 L 424.7 189.1 L 430.2 197.4 L 435.3 205.9 L 439.8 214.6 L 443.9 223.6 L 447.4 232.7 L 450.4 242.0 L 452.9 251.4 L 454.9 261.0 L 456.3 270.6 L 457.2 280.3 L 457.5 290.0 L 457.2 299.7 L 456.4 309.4 L 455.1 319.0 L 453.2 328.6 L 450.7 338.1 L 447.8 347.4 L 444.3 356.6 L 440.3 365.6 L 435.7 374.4 L 430.7 383.0 L 425.2 391.3 L 419.3 399.3 L 412.9 407.0 L 406.0 414.5 L 398.8 421.6 L 391.1 428.3 L 383.1 434.6 L 374.7 440.6 L 366.0 446.1 L 357.0 451.2 L 347.7 455.9 L 338.2 460.1 L 328.4 463.9 L 318.5 467.2 L 308.3 470.0 L 298.0 472.3 L 287.6 474.1 L 277.1 475.4 L 266.6 476.2 L 256.0 476.5 L 245.4 476.3 L 234.8 475.6 L 224.3 474.3 L 213.9 472.6 L 203.6 470.4 L 193.4 467.6 L 183.4 464.4 L 173.6 460.7 L 164.0 456.5 L 154.6 451.9 L 145.6 446.8 L 136.8 441.3 L 128.3 435.4 L 120.2 429.1 L 112.5 422.4 L 105.1 415.3 L 98.2 407.9 L 91.7 400.2 L 85.6 392.1 L 80.0 383.8 L 74.9 375.2 L 70.2 366.3 L 66.1 357.3 L 62.5 348.0 L 59.4 338.6 L 56.9 329.1 L 54.9 319.4 L 53.5 309.6 L 52.6 299.8 L 52.3 290.0 L 52.5 280.2 L 53.3 270.3 L 54.6 260.6 L 56.6 250.9 L 59.0 241.3 L 62.0 231.8 L 65.5 222.5 L 69.6 213.4 L 74.2 204.5 L 79.3 195.8 L 84.8 187.3 L 90.8 179.2 L 97.3 171.4 L 104.3 163.8 L 111.6 156.6 L 119.3 149.8 L 127.4 143.4 L 135.9 137.4 L 144.7 131.7 L 153.8 126.6 L 163.2 121.8 L 172.9 117.5 L 182.7 113.7 L 192.8 110.4 L 203.1 107.5 L 213.5 105.2 L 224.0 103.4 L 234.6 102.0 L 245.3 101.2 L 256.0 100.9" fill="none" stroke="#FFF4C5" stroke-width="3" opacity="0.35" stroke-linecap="round"/>

      <!-- Body shadow (ventral edge inner shadow) -->
      <path d="M 256.0 105.3 L 266.5 105.5 L 277.0 106.2 L 287.4 107.5 L 297.7 109.2 L 308.0 111.5 L 318.0 114.2 L 328.0 117.4 L 337.7 121.1 L 347.2 125.2 L 356.4 129.8 L 365.4 134.9 L 374.1 140.3 L 382.5 146.2 L 390.5 152.5 L 398.1 159.1 L 405.4 166.1 L 412.2 173.5 L 418.7 181.2 L 424.7 189.1 L 430.2 197.4 L 435.3 205.9 L 439.8 214.6 L 443.9 223.6 L 447.4 232.7 L 450.4 242.0 L 452.9 251.4 L 454.9 261.0 L 456.3 270.6 L 457.2 280.3 L 457.5 290.0 L 457.2 299.7 L 456.4 309.4 L 455.1 319.0 L 453.2 328.6 L 450.7 338.1 L 447.8 347.4 L 444.3 356.6 L 440.3 365.6 L 435.7 374.4 L 430.7 383.0 L 425.2 391.3 L 419.3 399.3 L 412.9 407.0 L 406.0 414.5 L 398.8 421.6 L 391.1 428.3 L 383.1 434.6 L 374.7 440.6 L 366.0 446.1 L 357.0 451.2 L 347.7 455.9 L 338.2 460.1 L 328.4 463.9 L 318.5 467.2 L 308.3 470.0 L 298.0 472.3 L 287.6 474.1 L 277.1 475.4 L 266.6 476.2 L 256.0 476.5 L 245.4 476.3 L 234.8 475.6 L 224.3 474.3 L 213.9 472.6 L 203.6 470.4 L 193.4 467.6 L 183.4 464.4 L 173.6 460.7 L 164.0 456.5 L 154.6 451.9 L 145.6 446.8 L 136.8 441.3 L 128.3 435.4 L 120.2 429.1 L 112.5 422.4 L 105.1 415.3 L 98.2 407.9 L 91.7 400.2 L 85.6 392.1 L 80.0 383.8 L 74.9 375.2 L 70.2 366.3 L 66.1 357.3 L 62.5 348.0 L 59.4 338.6 L 56.9 329.1 L 54.9 319.4 L 53.5 309.6 L 52.6 299.8 L 52.3 290.0 L 52.5 280.2 L 53.3 270.3 L 54.6 260.6 L 56.6 250.9 L 59.0 241.3 L 62.0 231.8 L 65.5 222.5 L 69.6 213.4 L 74.2 204.5 L 79.3 195.8 L 84.8 187.3 L 90.8 179.2 L 97.3 171.4 L 104.3 163.8 L 111.6 156.6 L 119.3 149.8 L 127.4 143.4 L 135.9 137.4 L 144.7 131.7 L 153.8 126.6 L 163.2 121.8 L 172.9 117.5 L 182.7 113.7 L 192.8 110.4 L 203.1 107.5 L 213.5 105.2 L 224.0 103.4 L 234.6 102.0 L 245.3 101.2 L 256.0 100.9" fill="none" stroke="#3D2606" stroke-width="6" opacity="0.25" stroke-linecap="round"/>

      <!-- Tail tip -->
      <path d="M 256 106 L 252 98 L 256 94 L 260 98 Z" fill="#A66D12" stroke="#5E3E09" stroke-width="0.8"/>

      <!-- ===== BODY SCALES ===== -->
<use href="#scaleBelly" transform="translate(289.1, 110.1) rotate(8.8) scale(0.32)"/>
      <use href="#scaleMedium" transform="translate(289.4, 108.3) rotate(8.8) scale(0.32)"/>
      <use href="#scaleBelly" transform="translate(305.4, 113.4) rotate(13.3) scale(0.33)"/>
      <use href="#scaleMedium" transform="translate(305.8, 111.5) rotate(13.3) scale(0.33)"/>
      <use href="#scaleBelly" transform="translate(321.3, 117.8) rotate(17.8) scale(0.34)"/>
      <use href="#scaleMedium" transform="translate(321.9, 116.0) rotate(17.8) scale(0.34)"/>
      <use href="#scaleBelly" transform="translate(336.7, 123.5) rotate(22.3) scale(0.35)"/>
      <use href="#scaleMedium" transform="translate(337.5, 121.6) rotate(22.3) scale(0.35)"/>
      <use href="#scaleBelly" transform="translate(351.5, 130.4) rotate(26.8) scale(0.36)"/>
      <use href="#scaleMedium" transform="translate(352.5, 128.5) rotate(26.8) scale(0.36)"/>
      <use href="#scaleBelly" transform="translate(365.7, 138.4) rotate(31.4) scale(0.37)"/>
      <use href="#scaleMedium" transform="translate(366.8, 136.5) rotate(31.4) scale(0.37)"/>
      <use href="#scaleBelly" transform="translate(379.1, 147.4) rotate(36.1) scale(0.38)"/>
      <use href="#scaleMedium" transform="translate(380.4, 145.5) rotate(36.1) scale(0.38)"/>
      <use href="#scaleBelly" transform="translate(391.6, 157.4) rotate(40.8) scale(0.39)"/>
      <use href="#scaleMedium" transform="translate(393.1, 155.6) rotate(40.8) scale(0.39)"/>
      <use href="#scaleBelly" transform="translate(403.1, 168.4) rotate(45.6) scale(0.41)"/>
      <use href="#scaleMedium" transform="translate(404.9, 166.6) rotate(45.6) scale(0.41)"/>
      <use href="#scaleBelly" transform="translate(413.6, 180.2) rotate(50.5) scale(0.42)"/>
      <use href="#scaleMedium" transform="translate(415.6, 178.5) rotate(50.5) scale(0.42)"/>
      <use href="#scaleBelly" transform="translate(423.0, 192.7) rotate(55.4) scale(0.43)"/>
      <use href="#scaleMedium" transform="translate(425.2, 191.2) rotate(55.4) scale(0.43)"/>
      <use href="#scaleLarge" transform="translate(426.6, 190.2) rotate(55.4) scale(0.41)"/>
      <use href="#scaleBelly" transform="translate(431.2, 205.9) rotate(60.4) scale(0.45)"/>
      <use href="#scaleMedium" transform="translate(433.6, 204.6) rotate(60.4) scale(0.45)"/>
      <use href="#scaleLarge" transform="translate(435.2, 203.7) rotate(60.4) scale(0.43)"/>
      <use href="#scaleBelly" transform="translate(438.1, 219.7) rotate(65.4) scale(0.46)"/>
      <use href="#scaleMedium" transform="translate(440.7, 218.5) rotate(65.4) scale(0.46)"/>
      <use href="#scaleLarge" transform="translate(442.5, 217.7) rotate(65.4) scale(0.44)"/>
      <use href="#scaleBelly" transform="translate(443.8, 234.0) rotate(70.5) scale(0.47)"/>
      <use href="#scaleMedium" transform="translate(446.6, 233.0) rotate(70.5) scale(0.47)"/>
      <use href="#scaleLarge" transform="translate(448.5, 232.3) rotate(70.5) scale(0.45)"/>
      <use href="#scaleBelly" transform="translate(448.1, 248.6) rotate(75.7) scale(0.49)"/>
      <use href="#scaleMedium" transform="translate(451.1, 247.9) rotate(75.7) scale(0.49)"/>
      <use href="#scaleLarge" transform="translate(453.1, 247.4) rotate(75.7) scale(0.47)"/>
      <use href="#scaleBelly" transform="translate(451.1, 263.6) rotate(80.9) scale(0.50)"/>
      <use href="#scaleMedium" transform="translate(454.3, 263.0) rotate(80.9) scale(0.50)"/>
      <use href="#scaleLarge" transform="translate(456.4, 262.7) rotate(80.9) scale(0.47)"/>
      <use href="#scaleBelly" transform="translate(452.8, 278.6) rotate(86.1) scale(0.52)"/>
      <use href="#scaleMedium" transform="translate(456.1, 278.4) rotate(86.1) scale(0.52)"/>
      <use href="#scaleLarge" transform="translate(458.3, 278.3) rotate(86.1) scale(0.49)"/>
      <use href="#scaleBelly" transform="translate(453.0, 293.8) rotate(91.3) scale(0.53)"/>
      <use href="#scaleMedium" transform="translate(456.4, 293.9) rotate(91.3) scale(0.53)"/>
      <use href="#scaleLarge" transform="translate(458.7, 293.9) rotate(91.3) scale(0.50)"/>
      <use href="#scaleBelly" transform="translate(451.9, 308.9) rotate(96.5) scale(0.55)"/>
      <use href="#scaleMedium" transform="translate(455.4, 309.3) rotate(96.5) scale(0.55)"/>
      <use href="#scaleLarge" transform="translate(457.7, 309.6) rotate(96.5) scale(0.52)"/>
      <use href="#scaleBelly" transform="translate(449.4, 323.8) rotate(101.7) scale(0.56)"/>
      <use href="#scaleMedium" transform="translate(453.0, 324.6) rotate(101.7) scale(0.56)"/>
      <use href="#scaleLarge" transform="translate(455.3, 325.1) rotate(101.7) scale(0.53)"/>
      <use href="#scaleBelly" transform="translate(445.5, 338.5) rotate(106.9) scale(0.58)"/>
      <use href="#scaleMedium" transform="translate(449.2, 339.6) rotate(106.9) scale(0.58)"/>
      <use href="#scaleLarge" transform="translate(451.5, 340.4) rotate(106.9) scale(0.55)"/>
      <use href="#scaleBelly" transform="translate(440.3, 352.9) rotate(112.0) scale(0.59)"/>
      <use href="#scaleMedium" transform="translate(444.0, 354.3) rotate(112.0) scale(0.59)"/>
      <use href="#scaleLarge" transform="translate(446.4, 355.3) rotate(112.0) scale(0.56)"/>
      <use href="#scaleBelly" transform="translate(433.9, 366.8) rotate(117.1) scale(0.61)"/>
      <use href="#scaleMedium" transform="translate(437.5, 368.6) rotate(117.1) scale(0.61)"/>
      <use href="#scaleLarge" transform="translate(439.9, 369.8) rotate(117.1) scale(0.58)"/>
      <use href="#scaleBelly" transform="translate(426.2, 380.1) rotate(122.1) scale(0.62)"/>
      <use href="#scaleMedium" transform="translate(429.7, 382.3) rotate(122.1) scale(0.62)"/>
      <use href="#scaleLarge" transform="translate(432.0, 383.8) rotate(122.1) scale(0.59)"/>
      <use href="#scaleBelly" transform="translate(417.3, 392.8) rotate(127.1) scale(0.64)"/>
      <use href="#scaleMedium" transform="translate(420.7, 395.4) rotate(127.1) scale(0.64)"/>
      <use href="#scaleLarge" transform="translate(423.0, 397.1) rotate(127.1) scale(0.61)"/>
      <use href="#scaleBelly" transform="translate(407.3, 404.7) rotate(132.0) scale(0.65)"/>
      <use href="#scaleMedium" transform="translate(410.6, 407.7) rotate(132.0) scale(0.65)"/>
      <use href="#scaleLarge" transform="translate(412.7, 409.7) rotate(132.0) scale(0.62)"/>
      <use href="#scaleBelly" transform="translate(396.2, 415.9) rotate(136.8) scale(0.67)"/>
      <use href="#scaleMedium" transform="translate(399.3, 419.2) rotate(136.8) scale(0.67)"/>
      <use href="#scaleLarge" transform="translate(401.4, 421.4) rotate(136.8) scale(0.64)"/>
      <use href="#scaleBelly" transform="translate(384.2, 426.1) rotate(141.5) scale(0.68)"/>
      <use href="#scaleMedium" transform="translate(387.1, 429.8) rotate(141.5) scale(0.68)"/>
      <use href="#scaleLarge" transform="translate(389.0, 432.2) rotate(141.5) scale(0.65)"/>
      <use href="#scaleBelly" transform="translate(371.3, 435.4) rotate(146.2) scale(0.70)"/>
      <use href="#scaleMedium" transform="translate(373.9, 439.4) rotate(146.2) scale(0.70)"/>
      <use href="#scaleLarge" transform="translate(375.7, 442.1) rotate(146.2) scale(0.66)"/>
      <use href="#scaleBelly" transform="translate(357.5, 443.7) rotate(150.9) scale(0.72)"/>
      <use href="#scaleMedium" transform="translate(360.0, 448.0) rotate(150.9) scale(0.72)"/>
      <use href="#scaleLarge" transform="translate(361.5, 450.9) rotate(150.9) scale(0.68)"/>
      <use href="#scaleBelly" transform="translate(343.1, 450.8) rotate(155.5) scale(0.73)"/>
      <use href="#scaleMedium" transform="translate(345.2, 455.5) rotate(155.5) scale(0.73)"/>
      <use href="#scaleLarge" transform="translate(346.6, 458.5) rotate(155.5) scale(0.69)"/>
      <use href="#scaleBelly" transform="translate(328.1, 456.9) rotate(160.0) scale(0.75)"/>
      <use href="#scaleMedium" transform="translate(329.9, 461.8) rotate(160.0) scale(0.75)"/>
      <use href="#scaleLarge" transform="translate(331.1, 465.0) rotate(160.0) scale(0.71)"/>
      <use href="#scaleBelly" transform="translate(312.6, 461.7) rotate(164.5) scale(0.76)"/>
      <use href="#scaleMedium" transform="translate(314.0, 466.9) rotate(164.5) scale(0.76)"/>
      <use href="#scaleLarge" transform="translate(315.0, 470.3) rotate(164.5) scale(0.72)"/>
      <use href="#scaleBelly" transform="translate(296.7, 465.3) rotate(168.9) scale(0.78)"/>
      <use href="#scaleMedium" transform="translate(297.7, 470.8) rotate(168.9) scale(0.78)"/>
      <use href="#scaleLarge" transform="translate(298.4, 474.3) rotate(168.9) scale(0.74)"/>
      <use href="#scaleBelly" transform="translate(280.5, 467.7) rotate(173.4) scale(0.80)"/>
      <use href="#scaleMedium" transform="translate(281.2, 473.4) rotate(173.4) scale(0.80)"/>
      <use href="#scaleLarge" transform="translate(281.6, 477.0) rotate(173.4) scale(0.76)"/>
      <use href="#scaleBelly" transform="translate(264.2, 468.9) rotate(177.8) scale(0.81)"/>
      <use href="#scaleMedium" transform="translate(264.4, 474.7) rotate(177.8) scale(0.81)"/>
      <use href="#scaleLarge" transform="translate(264.6, 478.5) rotate(177.8) scale(0.77)"/>
      <use href="#scaleBelly" transform="translate(247.8, 468.7) rotate(-177.8) scale(0.83)"/>
      <use href="#scaleMedium" transform="translate(247.6, 474.7) rotate(-177.8) scale(0.83)"/>
      <use href="#scaleLarge" transform="translate(247.4, 478.6) rotate(-177.8) scale(0.79)"/>
      <use href="#scaleBelly" transform="translate(231.5, 467.4) rotate(-173.4) scale(0.85)"/>
      <use href="#scaleMedium" transform="translate(230.8, 473.4) rotate(-173.4) scale(0.85)"/>
      <use href="#scaleLarge" transform="translate(230.4, 477.4) rotate(-173.4) scale(0.81)"/>
      <use href="#scaleBelly" transform="translate(215.4, 464.7) rotate(-168.9) scale(0.86)"/>
      <use href="#scaleMedium" transform="translate(214.2, 470.9) rotate(-168.9) scale(0.86)"/>
      <use href="#scaleLarge" transform="translate(213.5, 474.9) rotate(-168.9) scale(0.82)"/>
      <use href="#scaleBelly" transform="translate(199.7, 460.9) rotate(-164.5) scale(0.88)"/>
      <use href="#scaleMedium" transform="translate(197.9, 467.0) rotate(-164.5) scale(0.88)"/>
      <use href="#scaleLarge" transform="translate(196.8, 471.1) rotate(-164.5) scale(0.84)"/>
      <use href="#scaleBelly" transform="translate(184.3, 455.8) rotate(-160.0) scale(0.90)"/>
      <use href="#scaleMedium" transform="translate(182.1, 462.0) rotate(-160.0) scale(0.90)"/>
      <use href="#scaleLarge" transform="translate(180.6, 466.0) rotate(-160.0) scale(0.85)"/>
      <use href="#scaleBelly" transform="translate(169.4, 449.6) rotate(-155.5) scale(0.92)"/>
      <use href="#scaleMedium" transform="translate(166.7, 455.7) rotate(-155.5) scale(0.92)"/>
      <use href="#scaleLarge" transform="translate(164.9, 459.7) rotate(-155.5) scale(0.87)"/>
      <use href="#scaleBelly" transform="translate(155.2, 442.3) rotate(-150.9) scale(0.93)"/>
      <use href="#scaleMedium" transform="translate(151.9, 448.2) rotate(-150.9) scale(0.93)"/>
      <use href="#scaleLarge" transform="translate(149.7, 452.2) rotate(-150.9) scale(0.88)"/>
      <use href="#scaleBelly" transform="translate(141.8, 433.9) rotate(-146.2) scale(0.95)"/>
      <use href="#scaleMedium" transform="translate(137.9, 439.7) rotate(-146.2) scale(0.95)"/>
      <use href="#scaleLarge" transform="translate(135.3, 443.5) rotate(-146.2) scale(0.90)"/>
      <use href="#scaleBelly" transform="translate(129.1, 424.5) rotate(-141.5) scale(0.97)"/>
      <use href="#scaleMedium" transform="translate(124.7, 430.1) rotate(-141.5) scale(0.97)"/>
      <use href="#scaleLarge" transform="translate(121.8, 433.8) rotate(-141.5) scale(0.92)"/>
      <use href="#scaleBelly" transform="translate(117.4, 414.2) rotate(-136.8) scale(0.98)"/>
      <use href="#scaleMedium" transform="translate(112.4, 419.5) rotate(-136.8) scale(0.98)"/>
      <use href="#scaleLarge" transform="translate(109.1, 423.0) rotate(-136.8) scale(0.93)"/>
      <use href="#scaleBelly" transform="translate(106.6, 403.0) rotate(-132.0) scale(1.00)"/>
      <use href="#scaleMedium" transform="translate(101.1, 408.0) rotate(-132.0) scale(1.00)"/>
      <use href="#scaleLarge" transform="translate(97.5, 411.3) rotate(-132.0) scale(0.95)"/>
      <use href="#scaleBelly" transform="translate(97.0, 391.1) rotate(-127.1) scale(1.02)"/>
      <use href="#scaleMedium" transform="translate(90.9, 395.7) rotate(-127.1) scale(1.02)"/>
      <use href="#scaleLarge" transform="translate(86.9, 398.7) rotate(-127.1) scale(0.97)"/>
      <use href="#scaleBelly" transform="translate(88.4, 378.5) rotate(-122.1) scale(1.04)"/>
      <use href="#scaleMedium" transform="translate(81.9, 382.6) rotate(-122.1) scale(1.04)"/>
      <use href="#scaleLarge" transform="translate(77.5, 385.3) rotate(-122.1) scale(0.99)"/>
      <use href="#scaleBelly" transform="translate(81.1, 365.3) rotate(-117.1) scale(1.06)"/>
      <use href="#scaleMedium" transform="translate(74.0, 368.9) rotate(-117.1) scale(1.06)"/>
      <use href="#scaleLarge" transform="translate(69.4, 371.2) rotate(-117.1) scale(1.01)"/>
      <use href="#scaleBelly" transform="translate(74.9, 351.5) rotate(-112.0) scale(1.07)"/>
      <use href="#scaleMedium" transform="translate(67.5, 354.6) rotate(-112.0) scale(1.07)"/>
      <use href="#scaleLarge" transform="translate(62.6, 356.6) rotate(-112.0) scale(1.02)"/>
      <use href="#scaleBelly" transform="translate(70.1, 337.4) rotate(-106.9) scale(1.09)"/>
      <use href="#scaleMedium" transform="translate(62.2, 339.8) rotate(-106.9) scale(1.09)"/>
      <use href="#scaleLarge" transform="translate(57.1, 341.4) rotate(-106.9) scale(1.04)"/>
      <use href="#scaleBelly" transform="translate(66.6, 323.0) rotate(-101.7) scale(1.11)"/>
      <use href="#scaleMedium" transform="translate(58.4, 324.7) rotate(-101.7) scale(1.11)"/>
      <use href="#scaleLarge" transform="translate(53.0, 325.8) rotate(-101.7) scale(1.05)"/>
      <use href="#scaleBelly" transform="translate(64.4, 308.4) rotate(-96.5) scale(1.13)"/>
      <use href="#scaleMedium" transform="translate(55.9, 309.4) rotate(-96.5) scale(1.13)"/>
      <use href="#scaleLarge" transform="translate(50.3, 310.0) rotate(-96.5) scale(1.07)"/>
      <use href="#scaleBelly" transform="translate(63.5, 293.7) rotate(-91.3) scale(1.15)"/>
      <use href="#scaleMedium" transform="translate(54.8, 293.9) rotate(-91.3) scale(1.15)"/>
      <use href="#scaleLarge" transform="translate(49.1, 294.0) rotate(-91.3) scale(1.09)"/>
      <use href="#scaleBelly" transform="translate(64.0, 279.0) rotate(-86.1) scale(1.16)"/>
      <use href="#scaleMedium" transform="translate(55.1, 278.4) rotate(-86.1) scale(1.16)"/>
      <use href="#scaleLarge" transform="translate(49.3, 278.0) rotate(-86.1) scale(1.10)"/>
      <use href="#scaleBelly" transform="translate(65.8, 264.3) rotate(-80.9) scale(1.18)"/>
      <use href="#scaleMedium" transform="translate(56.9, 262.9) rotate(-80.9) scale(1.18)"/>
      <use href="#scaleLarge" transform="translate(51.0, 262.0) rotate(-80.9) scale(1.12)"/>
      <use href="#scaleBelly" transform="translate(68.9, 249.9) rotate(-75.7) scale(1.20)"/>
      <use href="#scaleMedium" transform="translate(60.0, 247.7) rotate(-75.7) scale(1.20)"/>
      <use href="#scaleLarge" transform="translate(54.2, 246.2) rotate(-75.7) scale(1.14)"/>
      <use href="#scaleBelly" transform="translate(73.3, 235.8) rotate(-70.5) scale(1.22)"/>
      <use href="#scaleMedium" transform="translate(64.5, 232.7) rotate(-70.5) scale(1.22)"/>
      <use href="#scaleLarge" transform="translate(58.7, 230.7) rotate(-70.5) scale(1.16)"/>
      <use href="#scaleBelly" transform="translate(79.0, 222.1) rotate(-65.4) scale(1.24)"/>
      <use href="#scaleMedium" transform="translate(70.4, 218.1) rotate(-65.4) scale(1.24)"/>
      <use href="#scaleLarge" transform="translate(64.7, 215.5) rotate(-65.4) scale(1.18)"/>
      <use href="#scaleBelly" transform="translate(86.0, 208.9) rotate(-60.4) scale(1.25)"/>
      <use href="#scaleMedium" transform="translate(77.6, 204.1) rotate(-60.4) scale(1.25)"/>
      <use href="#scaleLarge" transform="translate(72.0, 200.9) rotate(-60.4) scale(1.19)"/>
      <use href="#scaleBelly" transform="translate(94.1, 196.2) rotate(-55.4) scale(1.27)"/>
      <use href="#scaleMedium" transform="translate(86.0, 190.6) rotate(-55.4) scale(1.27)"/>
      <use href="#scaleLarge" transform="translate(80.7, 186.9) rotate(-55.4) scale(1.21)"/>
      <use href="#scaleBelly" transform="translate(103.3, 184.2) rotate(-50.5) scale(1.29)"/>
      <use href="#scaleMedium" transform="translate(95.6, 177.8) rotate(-50.5) scale(1.29)"/>
      <use href="#scaleLarge" transform="translate(90.5, 173.7) rotate(-50.5) scale(1.23)"/>
      <use href="#scaleBelly" transform="translate(113.6, 173.0) rotate(-45.6) scale(1.31)"/>
      <use href="#scaleMedium" transform="translate(106.3, 165.9) rotate(-45.6) scale(1.31)"/>
      <use href="#scaleLarge" transform="translate(101.6, 161.2) rotate(-45.6) scale(1.24)"/>
      <use href="#scaleBelly" transform="translate(124.9, 162.6) rotate(-40.8) scale(1.33)"/>
      <use href="#scaleMedium" transform="translate(118.1, 154.8) rotate(-40.8) scale(1.33)"/>
      <use href="#scaleLarge" transform="translate(113.7, 149.6) rotate(-40.8) scale(1.26)"/>
      <use href="#scaleBelly" transform="translate(137.1, 153.1) rotate(-36.1) scale(1.35)"/>
      <use href="#scaleMedium" transform="translate(130.9, 144.6) rotate(-36.1) scale(1.35)"/>
      <use href="#scaleLarge" transform="translate(126.8, 139.0) rotate(-36.1) scale(1.28)"/>
      <use href="#scaleBelly" transform="translate(150.1, 144.6) rotate(-31.4) scale(1.37)"/>
      <use href="#scaleMedium" transform="translate(144.5, 135.4) rotate(-31.4) scale(1.37)"/>
      <use href="#scaleLarge" transform="translate(140.9, 129.4) rotate(-31.4) scale(1.30)"/>
      <use href="#scaleBelly" transform="translate(163.8, 137.1) rotate(-26.8) scale(1.39)"/>
      <use href="#scaleMedium" transform="translate(158.9, 127.4) rotate(-26.8) scale(1.39)"/>
      <use href="#scaleLarge" transform="translate(155.7, 121.0) rotate(-26.8) scale(1.32)"/>
      <use href="#scaleBelly" transform="translate(178.2, 130.7) rotate(-22.3) scale(1.40)"/>
      <use href="#scaleMedium" transform="translate(174.1, 120.4) rotate(-22.3) scale(1.40)"/>
      <use href="#scaleLarge" transform="translate(171.3, 113.7) rotate(-22.3) scale(1.33)"/>
      <use href="#scaleBelly" transform="translate(193.2, 125.4) rotate(-17.8) scale(1.42)"/>
      <use href="#scaleMedium" transform="translate(189.7, 114.7) rotate(-17.8) scale(1.42)"/>
      <use href="#scaleLarge" transform="translate(187.5, 107.7) rotate(-17.8) scale(1.35)"/>
      <use href="#scaleBelly" transform="translate(208.5, 121.3) rotate(-13.3) scale(1.44)"/>
      <use href="#scaleMedium" transform="translate(205.9, 110.2) rotate(-13.3) scale(1.44)"/>
      <use href="#scaleLarge" transform="translate(204.2, 102.9) rotate(-13.3) scale(1.37)"/>
      <use href="#scaleBelly" transform="translate(224.2, 118.4) rotate(-8.8) scale(1.46)"/>
      <use href="#scaleMedium" transform="translate(222.4, 106.9) rotate(-8.8) scale(1.46)"/>
      <use href="#scaleLarge" transform="translate(221.2, 99.4) rotate(-8.8) scale(1.39)"/>

    </g>

    <!-- ===== HEAD (animated along path) ===== -->
    <g>
      <animateMotion dur="4s" repeatCount="indefinite" rotate="auto" fill="freeze"
        calcMode="spline"
        keyTimes="0;0.88;0.95;1"
        keyPoints="0;1;1;0"
        keySplines="0.42 0 0.58 1; 0.42 0 0.58 1; 0.42 0 0.58 1">
        <mpath href="#ringPath"/>
      </animateMotion>

      <!-- Head group - rotated 90 deg so it faces forward along the path tangent -->
      <use href="#snakeHead" transform="rotate(90)"/>
    </g>

    <!-- ===== BITE EFFECT (at end of animation) ===== -->
    <!-- When head reaches tail, show jaw close -->
    <g>
      <animate attributeName="opacity" values="0;0;0;1;1;0;0" keyTimes="0;0.88;0.9;0.93;0.96;0.98;1"
        dur="4s" repeatCount="indefinite"/>
      <!-- Jaw closure overlay -->
      <g transform="translate(256, 106)">
        <path d="M -14 6 C -16 12, -10 18, 0 20 C 10 18, 16 12, 14 6"
              fill="#A66D12" stroke="#5E3E09" stroke-width="1.5"/>
        <!-- Eye flash -->
        <circle cx="-12" cy="-16" r="6" fill="url(#eyeGlow)" opacity="0.8" filter="url(#glowFilter)"/>
        <circle cx="12" cy="-16" r="6" fill="url(#eyeGlow)" opacity="0.8" filter="url(#glowFilter)"/>
      </g>
    </g>

  </g>

  <!-- ===== FADE OVERLAY (for loop restart) ===== -->
  <rect width="512" height="512" fill="transparent" opacity="1">
    <animate attributeName="opacity" values="1;1;0.3;1" keyTimes="0;0.95;1;1.02" dur="4s" repeatCount="indefinite"/>
  </rect>

</svg>